<?xml version="1.0" encoding="UTF-8" standalone="no"?>
<!-- Created with Inkscape (http://www.inkscape.org/) -->

<svg
   width="210mm"
   height="297mm"
   viewBox="0 0 210 297"
   version="1.1"
   id="svg5"
   sodipodi:docname="drawing.svg"
   inkscape:version="1.1 (c68e22c387, 2021-05-23)"
   xmlns:inkscape="http://www.inkscape.org/namespaces/inkscape"
   xmlns:sodipodi="http://sodipodi.sourceforge.net/DTD/sodipodi-0.dtd"
   xmlns:xlink="http://www.w3.org/1999/xlink"
   xmlns="http://www.w3.org/2000/svg"
   xmlns:svg="http://www.w3.org/2000/svg"
   xmlns:ns13="http://www.iki.fi/pav/software/textext/">
  <sodipodi:namedview
     id="namedview7"
     pagecolor="#ffffff"
     bordercolor="#999999"
     borderopacity="1"
     inkscape:pageshadow="0"
     inkscape:pageopacity="0"
     inkscape:pagecheckerboard="0"
     inkscape:document-units="mm"
     showgrid="false"
     inkscape:zoom="0.76791526"
     inkscape:cx="651.11351"
     inkscape:cy="515.03078"
     inkscape:window-width="1829"
     inkscape:window-height="1051"
     inkscape:window-x="-9"
     inkscape:window-y="-9"
     inkscape:window-maximized="1"
     inkscape:current-layer="layer1" />
  <defs
     id="defs2">
    <linearGradient
       inkscape:collect="always"
       id="linearGradient371">
      <stop
         style="stop-color:#000000;stop-opacity:1;"
         offset="0"
         id="stop367" />
      <stop
         style="stop-color:#000000;stop-opacity:0;"
         offset="1"
         id="stop369" />
    </linearGradient>
    <linearGradient
       inkscape:collect="always"
       xlink:href="#linearGradient371"
       id="linearGradient373"
       x1="19.555162"
       y1="44.242439"
       x2="153.0657"
       y2="101.81939"
       gradientUnits="userSpaceOnUse" />
  </defs>
  <g
     inkscape:label="Layer 1"
     inkscape:groupmode="layer"
     id="layer1">
    <rect
       style="fill:#0000ff;fill-rule:evenodd;stroke-width:0.264583"
       id="rect530"
       width="50.993038"
       height="42.034801"
       x="35.832947"
       y="58.228539" />
    <rect
       style="fill:#0000ff;fill-rule:evenodd;stroke-width:0.264583"
       id="rect532"
       width="42.034801"
       height="42.034801"
       x="69.254059"
       y="84.069603" />
    <rect
       style="fill:#0000ff;fill-rule:evenodd;stroke-width:0.264583"
       id="rect534"
       width="28.252903"
       height="21.706495"
       x="74.077728"
       y="48.23666" />
    <rect
       style="fill:#0000ff;fill-rule:evenodd;stroke-width:0.264583"
       id="rect536"
       width="32.38747"
       height="40.656609"
       x="100.60789"
       y="70.976799" />
    <ellipse
       style="fill:#ff0000;fill-rule:evenodd;stroke-width:0.264583"
       id="path560"
       cx="63.052204"
       cy="126.96578"
       rx="18.950115"
       ry="18.433294" />
    <circle
       style="fill:#ff0000;fill-rule:evenodd;stroke-width:0.264583"
       id="path562"
       cx="123.34113"
       cy="70.832092"
       r="36.866589" />
    <g
       transform="matrix(1.07704,0,0,1.07704,75.822541,173.70959)"
       ns13:version="1.8.1"
       ns13:texconverter="pdflatex"
       ns13:pdfconverter="inkscape"
       ns13:text="$\\theta = 30^\\circ$"
       ns13:preamble="C:\Users\user\AppData\Roaming\inkscape\extensions\textext\default_packages.tex"
       ns13:scale="3.053036707094666"
       ns13:alignment="middle center"
       ns13:stroke-to-path="0"
       ns13:jacobian_sqrt="1.07704"
       id="g856">
      <defs
         id="id-0d6d739b-6fa3-4bf3-8069-07c6e42b70ad">
        <g
           id="id-4c501fd0-f36d-4c0d-a2de-162a7ee0f76b">
          <symbol
             overflow="visible"
             id="id-de97a7aa-924d-431a-a8c3-ca3c1993ead9">
            <path
               style="stroke:none;stroke-width:0"
               d=""
               id="id-957a1b0f-50ca-46ed-968b-2f01e42de941" />
          </symbol>
          <symbol
             overflow="visible"
             id="id-bd405df6-f75e-44ed-8e85-9be0b792daa6">
            <path
               style="stroke:none;stroke-width:0"
               d="m 4.53125,-4.984375 c 0,-0.65625 -0.171875,-2.046875 -1.1875,-2.046875 -1.390625,0 -2.921875,2.8125 -2.921875,5.09375 0,0.9375 0.28125,2.046875 1.1875,2.046875 1.40625,0 2.921875,-2.859375 2.921875,-5.09375 z M 1.46875,-3.625 C 1.640625,-4.25 1.84375,-5.046875 2.25,-5.765625 2.515625,-6.25 2.875,-6.8125 3.328125,-6.8125 c 0.484375,0 0.546875,0.640625 0.546875,1.203125 0,0.5 -0.078125,1 -0.3125,1.984375 z m 2,0.328125 C 3.359375,-2.84375 3.15625,-2 2.765625,-1.28125 c -0.34375,0.6875 -0.71875,1.171875 -1.15625,1.171875 -0.328125,0 -0.53125,-0.296875 -0.53125,-1.21875 0,-0.421875 0.0625,-1 0.3125,-1.96875 z m 0,0"
               id="id-94b5c885-a30e-47b8-a5a2-7c75ba7711bc" />
          </symbol>
          <symbol
             overflow="visible"
             id="id-ef7422a2-31e9-4506-878e-411094013290">
            <path
               style="stroke:none;stroke-width:0"
               d=""
               id="id-ebc7870b-7abd-4c84-adf4-98741e3783c7" />
          </symbol>
          <symbol
             overflow="visible"
             id="id-e215d6ec-7354-4321-b2c2-13c2e58fe48e">
            <path
               style="stroke:none;stroke-width:0"
               d="m 6.84375,-3.265625 c 0.15625,0 0.34375,0 0.34375,-0.1875 C 7.1875,-3.65625 7,-3.65625 6.859375,-3.65625 h -5.96875 c -0.140625,0 -0.328125,0 -0.328125,0.203125 0,0.1875 0.1875,0.1875 0.328125,0.1875 z m 0.015625,1.9375 c 0.140625,0 0.328125,0 0.328125,-0.203125 0,-0.1875 -0.1875,-0.1875 -0.34375,-0.1875 H 0.890625 c -0.140625,0 -0.328125,0 -0.328125,0.1875 0,0.203125 0.1875,0.203125 0.328125,0.203125 z m 0,0"
               id="id-59a5b967-a9a6-41cc-b4fe-6c99c8b45bcf" />
          </symbol>
          <symbol
             overflow="visible"
             id="id-e167d6f3-92d0-482d-ac69-4f5bc1db8a39">
            <path
               style="stroke:none;stroke-width:0"
               d="m 2.890625,-3.515625 c 0.8125,-0.265625 1.390625,-0.953125 1.390625,-1.75 0,-0.8125 -0.875,-1.375 -1.828125,-1.375 -1,0 -1.765625,0.59375 -1.765625,1.359375 0,0.328125 0.21875,0.515625 0.515625,0.515625 0.296875,0 0.5,-0.21875 0.5,-0.515625 0,-0.484375 -0.46875,-0.484375 -0.609375,-0.484375 0.296875,-0.5 0.953125,-0.625 1.3125,-0.625 0.421875,0 0.96875,0.21875 0.96875,1.109375 0,0.125 -0.03125,0.703125 -0.28125,1.140625 C 2.796875,-3.65625 2.453125,-3.625 2.203125,-3.625 2.125,-3.609375 1.890625,-3.59375 1.8125,-3.59375 c -0.078125,0.015625 -0.140625,0.03125 -0.140625,0.125 0,0.109375 0.0625,0.109375 0.234375,0.109375 h 0.4375 c 0.8125,0 1.1875,0.671875 1.1875,1.65625 0,1.359375 -0.6875,1.640625 -1.125,1.640625 -0.4375,0 -1.1875,-0.171875 -1.53125,-0.75 0.34375,0.046875 0.65625,-0.171875 0.65625,-0.546875 0,-0.359375 -0.265625,-0.5625 -0.546875,-0.5625 -0.25,0 -0.5625,0.140625 -0.5625,0.578125 0,0.90625 0.921875,1.5625 2.015625,1.5625 1.21875,0 2.125,-0.90625 2.125,-1.921875 0,-0.8125 -0.640625,-1.59375 -1.671875,-1.8125 z m 0,0"
               id="id-89a13440-6f2c-40f0-999c-1e98f81202cb" />
          </symbol>
          <symbol
             overflow="visible"
             id="id-e595c686-cabc-4e58-a0c5-eab8dbe6b0ad">
            <path
               style="stroke:none;stroke-width:0"
               d="m 4.578125,-3.1875 c 0,-0.796875 -0.046875,-1.59375 -0.390625,-2.328125 -0.453125,-0.96875 -1.28125,-1.125 -1.6875,-1.125 -0.609375,0 -1.328125,0.265625 -1.75,1.1875 -0.3125,0.6875 -0.359375,1.46875 -0.359375,2.265625 0,0.75 0.03125,1.640625 0.453125,2.40625 0.421875,0.796875 1.15625,1 1.640625,1 0.53125,0 1.296875,-0.203125 1.734375,-1.15625 0.3125,-0.6875 0.359375,-1.46875 0.359375,-2.25 z M 2.484375,0 C 2.09375,0 1.5,-0.25 1.328125,-1.203125 1.21875,-1.796875 1.21875,-2.71875 1.21875,-3.3125 c 0,-0.640625 0,-1.296875 0.078125,-1.828125 0.1875,-1.1875 0.9375,-1.28125 1.1875,-1.28125 0.328125,0 0.984375,0.1875 1.171875,1.171875 0.109375,0.5625 0.109375,1.3125 0.109375,1.9375 0,0.75 0,1.421875 -0.109375,2.0625 C 3.5,-0.296875 2.9375,0 2.484375,0 Z m 0,0"
               id="id-c303f906-43ab-4b40-b883-a8086db45ed0" />
          </symbol>
          <symbol
             overflow="visible"
             id="id-ef94a78a-f9a8-4c7a-9d81-1f480175ac63">
            <path
               style="stroke:none;stroke-width:0"
               d=""
               id="id-10b2742a-3912-4ebe-88e8-121cb92bc802" />
          </symbol>
          <symbol
             overflow="visible"
             id="id-d391c12b-7406-419b-9732-859107a80f90">
            <path
               style="stroke:none;stroke-width:0"
               d="m 3.53125,-1.734375 c 0,-0.84375 -0.671875,-1.5 -1.5,-1.5 -0.828125,0 -1.5,0.671875 -1.5,1.484375 0,0.84375 0.6875,1.5 1.5,1.5 0.84375,0 1.5,-0.671875 1.5,-1.484375 z m -1.5,1.140625 C 1.375,-0.59375 0.875,-1.125 0.875,-1.734375 c 0,-0.65625 0.515625,-1.171875 1.15625,-1.171875 0.65625,0 1.15625,0.53125 1.15625,1.15625 0,0.65625 -0.515625,1.15625 -1.15625,1.15625 z m 0,0"
               id="id-eba49ca4-a62e-4d90-b984-b42c4d9c4335" />
          </symbol>
        </g>
      </defs>
      <g
         id="id-3f170cf7-54e6-4fef-8956-243feafd9cc2"
         transform="translate(-149.134,-127.734)">
        <g
           style="fill:#000000;fill-opacity:1"
           id="id-2cdbc7e8-e4c5-47fb-be19-fdf6698256ad">
          <g
             transform="translate(148.712,134.765)"
             id="g837">
            <path
               style="stroke:none;stroke-width:0"
               d="m 4.53125,-4.984375 c 0,-0.65625 -0.171875,-2.046875 -1.1875,-2.046875 -1.390625,0 -2.921875,2.8125 -2.921875,5.09375 0,0.9375 0.28125,2.046875 1.1875,2.046875 1.40625,0 2.921875,-2.859375 2.921875,-5.09375 z M 1.46875,-3.625 C 1.640625,-4.25 1.84375,-5.046875 2.25,-5.765625 2.515625,-6.25 2.875,-6.8125 3.328125,-6.8125 c 0.484375,0 0.546875,0.640625 0.546875,1.203125 0,0.5 -0.078125,1 -0.3125,1.984375 z m 2,0.328125 C 3.359375,-2.84375 3.15625,-2 2.765625,-1.28125 c -0.34375,0.6875 -0.71875,1.171875 -1.15625,1.171875 -0.328125,0 -0.53125,-0.296875 -0.53125,-1.21875 0,-0.421875 0.0625,-1 0.3125,-1.96875 z m 0,0"
               id="id-89386a56-dfae-4186-9e13-54c908b0558d" />
          </g>
        </g>
        <g
           style="fill:#000000;fill-opacity:1"
           id="id-596982c3-4c14-48d7-86d2-022f7ffb8ff3">
          <g
             transform="translate(156.433,134.765)"
             id="g841">
            <path
               style="stroke:none;stroke-width:0"
               d="m 6.84375,-3.265625 c 0.15625,0 0.34375,0 0.34375,-0.1875 C 7.1875,-3.65625 7,-3.65625 6.859375,-3.65625 h -5.96875 c -0.140625,0 -0.328125,0 -0.328125,0.203125 0,0.1875 0.1875,0.1875 0.328125,0.1875 z m 0.015625,1.9375 c 0.140625,0 0.328125,0 0.328125,-0.203125 0,-0.1875 -0.1875,-0.1875 -0.34375,-0.1875 H 0.890625 c -0.140625,0 -0.328125,0 -0.328125,0.1875 0,0.203125 0.1875,0.203125 0.328125,0.203125 z m 0,0"
               id="id-34ce20fe-d229-48a4-b6a7-d38156665215" />
          </g>
        </g>
        <g
           style="fill:#000000;fill-opacity:1"
           id="id-e3a56da1-3fc5-4b05-a5d0-c947dd4b36d9">
          <g
             transform="translate(166.952,134.765)"
             id="g845">
            <path
               style="stroke:none;stroke-width:0"
               d="m 2.890625,-3.515625 c 0.8125,-0.265625 1.390625,-0.953125 1.390625,-1.75 0,-0.8125 -0.875,-1.375 -1.828125,-1.375 -1,0 -1.765625,0.59375 -1.765625,1.359375 0,0.328125 0.21875,0.515625 0.515625,0.515625 0.296875,0 0.5,-0.21875 0.5,-0.515625 0,-0.484375 -0.46875,-0.484375 -0.609375,-0.484375 0.296875,-0.5 0.953125,-0.625 1.3125,-0.625 0.421875,0 0.96875,0.21875 0.96875,1.109375 0,0.125 -0.03125,0.703125 -0.28125,1.140625 C 2.796875,-3.65625 2.453125,-3.625 2.203125,-3.625 2.125,-3.609375 1.890625,-3.59375 1.8125,-3.59375 c -0.078125,0.015625 -0.140625,0.03125 -0.140625,0.125 0,0.109375 0.0625,0.109375 0.234375,0.109375 h 0.4375 c 0.8125,0 1.1875,0.671875 1.1875,1.65625 0,1.359375 -0.6875,1.640625 -1.125,1.640625 -0.4375,0 -1.1875,-0.171875 -1.53125,-0.75 0.34375,0.046875 0.65625,-0.171875 0.65625,-0.546875 0,-0.359375 -0.265625,-0.5625 -0.546875,-0.5625 -0.25,0 -0.5625,0.140625 -0.5625,0.578125 0,0.90625 0.921875,1.5625 2.015625,1.5625 1.21875,0 2.125,-0.90625 2.125,-1.921875 0,-0.8125 -0.640625,-1.59375 -1.671875,-1.8125 z m 0,0"
               id="id-6a5a3974-6e0a-4d7d-8a98-647b13b9d00a" />
          </g>
          <g
             transform="translate(171.933,134.765)"
             id="g848">
            <path
               style="stroke:none;stroke-width:0"
               d="m 4.578125,-3.1875 c 0,-0.796875 -0.046875,-1.59375 -0.390625,-2.328125 -0.453125,-0.96875 -1.28125,-1.125 -1.6875,-1.125 -0.609375,0 -1.328125,0.265625 -1.75,1.1875 -0.3125,0.6875 -0.359375,1.46875 -0.359375,2.265625 0,0.75 0.03125,1.640625 0.453125,2.40625 0.421875,0.796875 1.15625,1 1.640625,1 0.53125,0 1.296875,-0.203125 1.734375,-1.15625 0.3125,-0.6875 0.359375,-1.46875 0.359375,-2.25 z M 2.484375,0 C 2.09375,0 1.5,-0.25 1.328125,-1.203125 1.21875,-1.796875 1.21875,-2.71875 1.21875,-3.3125 c 0,-0.640625 0,-1.296875 0.078125,-1.828125 0.1875,-1.1875 0.9375,-1.28125 1.1875,-1.28125 0.328125,0 0.984375,0.1875 1.171875,1.171875 0.109375,0.5625 0.109375,1.3125 0.109375,1.9375 0,0.75 0,1.421875 -0.109375,2.0625 C 3.5,-0.296875 2.9375,0 2.484375,0 Z m 0,0"
               id="id-d8905374-20b7-491a-a535-f9ddd4ec3287" />
          </g>
        </g>
        <g
           style="fill:#000000;fill-opacity:1"
           id="id-d254e0db-52d4-4ca0-9235-c0ee7fea60d4">
          <g
             transform="translate(176.912,131.149)"
             id="g852">
            <path
               style="stroke:none;stroke-width:0"
               d="m 3.53125,-1.734375 c 0,-0.84375 -0.671875,-1.5 -1.5,-1.5 -0.828125,0 -1.5,0.671875 -1.5,1.484375 0,0.84375 0.6875,1.5 1.5,1.5 0.84375,0 1.5,-0.671875 1.5,-1.484375 z m -1.5,1.140625 C 1.375,-0.59375 0.875,-1.125 0.875,-1.734375 c 0,-0.65625 0.515625,-1.171875 1.15625,-1.171875 0.65625,0 1.15625,0.53125 1.15625,1.15625 0,0.65625 -0.515625,1.15625 -1.15625,1.15625 z m 0,0"
               id="id-7776dd33-9c75-4a06-9a38-e12175164327" />
          </g>
        </g>
      </g>
    </g>
    <circle
       id="path1110"
       style="fill:#000000;stroke:#000000;stroke-width:0.264583"
       cx="144.70998"
       cy="106.46519"
       r="0.045893401" />
    <path
       style="fill:#000000;fill-opacity:1;fill-rule:nonzero;stroke:none;stroke-width:0.264583"
       id="path1455"
       d="m 33.010184,143.85821 c 4.132532,-9.46939 7.983585,-19.05199 11.767721,-28.66441 2.015448,-5.16956 3.817258,-10.41874 5.883302,-15.568445 2.529345,-6.077683 5.577371,-11.918 8.555476,-17.782963 3.070228,-6.16793 6.093942,-12.357523 9.235274,-18.48967 1.575911,-3.132659 3.485562,-6.070836 5.361246,-9.026359 -0.669178,0.439068 1.118296,-1.296966 0.81901,-0.990444 -0.952883,0.975911 -2.814791,1.5561 -2.867522,2.91904 -0.0837,2.163215 1.725035,3.971991 2.523048,5.984372 2.488578,6.275567 4.951563,13.228706 7.241648,19.540855 4.260588,12.138736 8.526653,24.280284 12.395084,36.551264 1.550908,4.91961 2.093335,6.82856 3.499143,11.58955 1.558513,5.50048 3.213776,10.98537 4.412376,16.57919 0.0965,0.52713 0.30432,1.48715 0.30916,2.07208 0.002,0.18662 -0.007,0.38205 -0.0789,0.5543 -0.0447,0.10718 -0.35052,0.30221 -0.25238,0.24013 0.99203,-0.62759 2.18109,-1.04362 2.93919,-1.93988 0.23586,-0.27884 -0.70547,-0.18927 -1.05821,-0.2839 -8.763739,-3.23352 -17.521396,-6.47395 -26.094164,-10.19714 -3.522903,-1.53001 -7.000165,-3.16304 -10.500248,-4.74456 -15.931221,-7.45611 -31.427991,-15.78656 -47.017121,-23.92115 -2.065072,-1.1317 -4.213214,-2.0982 -6.316797,-3.15279 -0.234227,-0.11743 -0.474748,-0.22566 -0.693923,-0.36923 -0.03389,-0.0222 -0.0126,-0.1402 -0.04317,-0.11361 -0.765325,0.66586 -1.479671,1.38813 -2.219505,2.0822 2.841372,-0.43838 5.693177,-0.81378 8.524116,-1.31514 12.43497,-2.20222 27.547221,-5.24813 39.562304,-8.042493 15.1155,-3.515439 35.6088,-8.926295 50.657818,-13.055589 7.07552,-1.941449 14.12069,-3.991846 21.18104,-5.987767 12.66534,-3.71203 17.78674,-5.147043 29.72775,-8.862756 6.60807,-2.056251 13.26043,-4.113538 19.66187,-6.765538 0.87654,-0.363133 1.73278,-0.773438 2.59916,-1.160159 2.32613,-1.254754 2.73505,-1.435692 5.62189,-3.365275 0.15807,-0.105658 0.49132,-0.580353 0.36357,-0.439526 -1.36975,1.509964 -3.24704,2.691072 -4.08992,4.547344 -1.06283,2.340636 -0.94556,5.053576 -1.41708,7.580601 -0.6735,3.609496 -1.34533,7.219307 -2.018,10.828959 -3.13867,17.093149 -6.26879,34.194059 -8.63216,51.414729 -0.42988,3.78669 -1.0299,7.55686 -1.33974,11.35683 0.0112,0.61616 -0.23706,1.41133 0.18556,1.9515 0.0971,0.12414 0.22934,0.21628 0.34401,0.32442 1.34788,0.93725 2.83853,1.63985 4.32839,2.31763 1.03061,0.4683 2.0066,1.04104 3.0893,1.38395 0.50229,0.12031 0.25274,0.0695 0.74839,0.15381 0,0 3.23605,-2.28202 3.23605,-2.28202 v 0 c -0.47736,-0.054 -0.23681,-0.0192 -0.72146,-0.10552 -1.09711,-0.28303 -2.06988,-0.84752 -3.09576,-1.31371 -1.46308,-0.63821 -2.91955,-1.32093 -4.22698,-2.24573 -0.0857,-0.0649 -0.187,-0.11324 -0.25707,-0.19478 -0.37296,-0.43398 -0.0425,-1.25317 -0.12453,-1.74718 0.18119,-3.72006 0.61735,-7.42244 0.93572,-11.13179 1.89526,-17.14169 4.68898,-34.172041 8.02303,-51.090901 0.78102,-3.660497 1.51952,-7.330324 2.34306,-10.981489 0.58977,-2.614745 2.1688,-5.147908 1.89645,-7.814466 -0.10758,-1.053296 -1.83662,-1.084398 -2.8399,-1.422696 -0.15418,-0.05199 -0.48861,0.415991 -0.33963,0.350586 0.848,-0.372285 1.60979,-0.926002 2.46421,-1.283314 0.56764,-0.23739 -1.06621,0.61441 -1.59932,0.921618 -0.91051,0.428508 -1.80935,0.88274 -2.73153,1.285528 -6.63573,2.898352 -13.55664,5.158245 -20.43256,7.398411 -12.54258,4.08636 -17.09777,5.384867 -30.47703,9.447094 -7.15934,2.072968 -14.29806,4.218506 -21.47801,6.218901 -29.200287,8.135446 -58.645237,15.600201 -88.676649,19.964378 -2.611969,0.37957 -5.247833,0.57102 -7.871749,0.85653 -1.444369,0.74532 -2.941474,1.39627 -4.3331044,2.23595 -0.093434,0.0564 0.1137163,0.19688 0.2068573,0.25374 0.2369911,0.14466 0.5063091,0.22818 0.7615691,0.33743 2.216632,0.94876 4.444423,1.87335 6.607093,2.94355 15.972516,7.65691 31.687451,15.83502 47.647768,23.5172 7.138056,3.32609 12.373057,5.83313 19.521792,8.91874 5.345996,2.30749 10.804599,4.35392 16.140123,6.68725 0.36212,0.15077 0.71192,0.56924 1.08634,0.45232 1.48802,-0.46465 3.76584,-0.86139 4.01356,-2.40047 0.14453,-0.89795 -0.25465,-1.81443 -0.38004,-2.68139 -1.35432,-5.53363 -3.12053,-10.95705 -4.80514,-16.3959 C 95.258087,112.22523 89.557274,96.350665 83.938191,80.447842 82.484062,76.227799 78.682362,65.234697 77.151269,60.64954 76.45161,58.554278 76.716953,55.859129 75.108167,54.345374 c -2.288286,-2.153121 -3.982098,0.201236 -4.856464,1.551754 -1.806816,2.936873 -3.622075,5.87202 -5.149022,8.968775 -3.074927,6.137963 -6.10081,12.299764 -9.150247,18.450419 -3.017128,5.906053 -6.082853,11.797408 -8.710906,17.890288 -2.037633,5.08819 -3.669032,10.32295 -5.611921,15.4474 -3.700806,9.71032 -7.550761,19.36895 -12.021155,28.75607 0,0 3.401732,-1.55187 3.401732,-1.55187 z" />
    <circle
       id="path1457"
       style="fill:#000000;stroke:#000000;stroke-width:0.264583"
       cx="64.085846"
       cy="28.252903"
       r="0.045893401" />
    <circle
       id="path1459"
       style="fill:#000000;stroke:#000000;stroke-width:0.264583"
       cx="64.085846"
       cy="28.252903"
       r="0.045893401" />
    <g
       transform="matrix(0.918721 0 0 1.26265 27.9214 24.3306)"
       ns13:version="1.8.1"
       ns13:texconverter="pdflatex"
       ns13:pdfconverter="inkscape"
       ns13:text="\nThis is H$\\alpha$o\n\n"
       ns13:preamble="C:\Users\user\AppData\Roaming\inkscape\extensions\textext\default_packages.tex"
       ns13:scale="3.053036707094666"
       ns13:alignment="middle center"
       ns13:stroke-to-path="0"
       ns13:jacobian_sqrt="1.0770436716540328"
       style="fill:url(#linearGradient373);fill-opacity:1;stroke-width:0"
       id="g85">
      <defs
         id="id-3319cd02-f101-4d8b-aec4-27ba1f027572"
         style="fill:url(#linearGradient373);fill-opacity:1;stroke-width:0">
        <g
           id="id-58212d7a-fbeb-4a82-9d97-be2bcd404fc4"
           style="fill:url(#linearGradient373);fill-opacity:1;stroke-width:0">
          <symbol
             overflow="visible"
             id="id-bf77c2bd-fdf7-48d8-88a5-72f68b2c58e6"
             style="fill:url(#linearGradient373);fill-opacity:1;stroke-width:0">
            <path
               style="stroke:url(#linearGradient373);fill:url(#linearGradient373);fill-opacity:1;stroke-width:0"
               d=""
               id="id-e482e036-a267-4e22-b112-46baa4a7801c" />
          </symbol>
          <symbol
             overflow="visible"
             id="id-8fd2b520-c42b-43ab-b682-de95b85869a3"
             style="fill:url(#linearGradient373);fill-opacity:1;stroke-width:0">
            <path
               style="stroke:url(#linearGradient373);fill:url(#linearGradient373);fill-opacity:1;stroke-width:0"
               d="m 6.640625,-6.75 h -6.09375 l -0.1875,2.25 h 0.25 C 0.75,-6.109375 0.890625,-6.4375 2.40625,-6.4375 c 0.171875,0 0.4375,0 0.53125,0.015625 0.21875,0.046875 0.21875,0.15625 0.21875,0.375 v 5.265625 c 0,0.328125 0,0.46875 -1.046875,0.46875 H 1.703125 V 0 C 2.109375,-0.03125 3.125,-0.03125 3.59375,-0.03125 c 0.453125,0 1.484375,0 1.890625,0.03125 v -0.3125 h -0.40625 c -1.046875,0 -1.046875,-0.140625 -1.046875,-0.46875 v -5.265625 c 0,-0.1875 0,-0.328125 0.1875,-0.375 0.109375,-0.015625 0.375,-0.015625 0.5625,-0.015625 1.515625,0 1.65625,0.328125 1.796875,1.9375 h 0.25 z m 0,0"
               id="id-49096da9-b3db-4c11-a92a-50ec76ed9efd" />
          </symbol>
          <symbol
             overflow="visible"
             id="id-cf604726-76af-4b41-8fef-a477dfc3e664"
             style="fill:url(#linearGradient373);fill-opacity:1;stroke-width:0">
            <path
               style="stroke:url(#linearGradient373);fill:url(#linearGradient373);fill-opacity:1;stroke-width:0"
               d="m 1.09375,-0.75 c 0,0.4375 -0.109375,0.4375 -0.78125,0.4375 V 0 c 0.359375,-0.015625 0.859375,-0.03125 1.140625,-0.03125 0.25,0 0.765625,0.015625 1.109375,0.03125 v -0.3125 c -0.671875,0 -0.78125,0 -0.78125,-0.4375 V -2.59375 C 1.78125,-3.625 2.5,-4.1875 3.125,-4.1875 c 0.640625,0 0.75,0.53125 0.75,1.109375 V -0.75 c 0,0.4375 -0.109375,0.4375 -0.78125,0.4375 V 0 c 0.34375,-0.015625 0.859375,-0.03125 1.125,-0.03125 0.25,0 0.78125,0.015625 1.109375,0.03125 v -0.3125 c -0.515625,0 -0.765625,0 -0.765625,-0.296875 v -1.90625 c 0,-0.859375 0,-1.15625 -0.3125,-1.515625 -0.140625,-0.171875 -0.46875,-0.375 -1.046875,-0.375 -0.84375,0 -1.28125,0.59375 -1.453125,0.984375 v -3.5 L 0.3125,-6.8125 V -6.5 c 0.703125,0 0.78125,0.0625 0.78125,0.5625 z m 0,0"
               id="id-c778aa6f-0fab-45c9-8bcc-28148dd69376" />
          </symbol>
          <symbol
             overflow="visible"
             id="id-0c0ba3c5-9137-4de3-8f90-ea38df83d746"
             style="fill:url(#linearGradient373);fill-opacity:1;stroke-width:0">
            <path
               style="stroke:url(#linearGradient373);fill:url(#linearGradient373);fill-opacity:1;stroke-width:0"
               d="M 1.765625,-4.40625 0.375,-4.296875 v 0.3125 c 0.640625,0 0.734375,0.0625 0.734375,0.546875 V -0.75 c 0,0.4375 -0.109375,0.4375 -0.78125,0.4375 V 0 C 0.640625,-0.015625 1.1875,-0.03125 1.421875,-0.03125 1.78125,-0.03125 2.125,-0.015625 2.46875,0 v -0.3125 c -0.671875,0 -0.703125,-0.046875 -0.703125,-0.4375 z m 0.03125,-1.734375 c 0,-0.3125 -0.234375,-0.53125 -0.515625,-0.53125 -0.3125,0 -0.53125,0.265625 -0.53125,0.53125 0,0.265625 0.21875,0.53125 0.53125,0.53125 0.28125,0 0.515625,-0.21875 0.515625,-0.53125 z m 0,0"
               id="id-3f888e44-3035-4ead-bfb1-aa9c498e2592" />
          </symbol>
          <symbol
             overflow="visible"
             id="id-1663fe1f-28bb-4776-a6b4-8d49d06e0c78"
             style="fill:url(#linearGradient373);fill-opacity:1;stroke-width:0">
            <path
               style="stroke:url(#linearGradient373);fill:url(#linearGradient373);fill-opacity:1;stroke-width:0"
               d="m 2.078125,-1.9375 c 0.21875,0.046875 1.03125,0.203125 1.03125,0.921875 0,0.5 -0.34375,0.90625 -1.125,0.90625 -0.84375,0 -1.203125,-0.5625 -1.390625,-1.421875 C 0.5625,-1.65625 0.5625,-1.6875 0.453125,-1.6875 c -0.125,0 -0.125,0.0625 -0.125,0.234375 V -0.125 c 0,0.171875 0,0.234375 0.109375,0.234375 0.046875,0 0.0625,-0.015625 0.25,-0.203125 0.015625,-0.015625 0.015625,-0.03125 0.203125,-0.21875 0.4375,0.40625 0.890625,0.421875 1.09375,0.421875 1.140625,0 1.609375,-0.671875 1.609375,-1.390625 0,-0.515625 -0.296875,-0.828125 -0.421875,-0.9375 C 2.84375,-2.546875 2.453125,-2.625 2.03125,-2.703125 1.46875,-2.8125 0.8125,-2.9375 0.8125,-3.515625 c 0,-0.359375 0.25,-0.765625 1.109375,-0.765625 1.09375,0 1.15625,0.90625 1.171875,1.203125 0,0.09375 0.09375,0.09375 0.109375,0.09375 0.140625,0 0.140625,-0.046875 0.140625,-0.234375 v -1.015625 c 0,-0.15625 0,-0.234375 -0.109375,-0.234375 -0.046875,0 -0.078125,0 -0.203125,0.125 -0.03125,0.03125 -0.125,0.125 -0.171875,0.15625 -0.375,-0.28125 -0.78125,-0.28125 -0.9375,-0.28125 -1.21875,0 -1.59375,0.671875 -1.59375,1.234375 0,0.34375 0.15625,0.625 0.421875,0.84375 0.328125,0.25 0.609375,0.3125 1.328125,0.453125 z m 0,0"
               id="id-5e6aa8c2-fd1d-4ea7-9a0f-8346bb1b8911" />
          </symbol>
          <symbol
             overflow="visible"
             id="id-283a0f16-139b-4fda-9510-85bdf0793ef4"
             style="fill:url(#linearGradient373);fill-opacity:1;stroke-width:0">
            <path
               style="stroke:url(#linearGradient373);fill:url(#linearGradient373);fill-opacity:1;stroke-width:0"
               d="M 6.109375,-6.03125 C 6.109375,-6.390625 6.125,-6.5 6.890625,-6.5 h 0.25 v -0.3125 c -0.359375,0.03125 -1.09375,0.03125 -1.46875,0.03125 -0.375,0 -1.125,0 -1.46875,-0.03125 V -6.5 H 4.4375 c 0.765625,0 0.78125,0.109375 0.78125,0.46875 v 2.328125 H 2.25 V -6.03125 C 2.25,-6.390625 2.265625,-6.5 3.03125,-6.5 h 0.234375 v -0.3125 c -0.34375,0.03125 -1.078125,0.03125 -1.46875,0.03125 -0.375,0 -1.125,0 -1.46875,-0.03125 V -6.5 H 0.5625 c 0.765625,0 0.796875,0.109375 0.796875,0.46875 v 5.25 c 0,0.359375 -0.03125,0.46875 -0.796875,0.46875 H 0.328125 V 0 c 0.34375,-0.03125 1.09375,-0.03125 1.46875,-0.03125 0.375,0 1.125,0 1.46875,0.03125 V -0.3125 H 3.03125 C 2.265625,-0.3125 2.25,-0.421875 2.25,-0.78125 v -2.609375 h 2.96875 v 2.609375 c 0,0.359375 -0.015625,0.46875 -0.78125,0.46875 H 4.203125 V 0 c 0.34375,-0.03125 1.078125,-0.03125 1.453125,-0.03125 0.390625,0 1.125,0 1.484375,0.03125 v -0.3125 h -0.25 c -0.765625,0 -0.78125,-0.109375 -0.78125,-0.46875 z m 0,0"
               id="id-fee032a0-67df-4e39-b35b-dba912717094" />
          </symbol>
          <symbol
             overflow="visible"
             id="id-5b99b8e6-71cf-42eb-920e-e73b9b3a4d3e"
             style="fill:url(#linearGradient373);fill-opacity:1;stroke-width:0">
            <path
               style="stroke:url(#linearGradient373);fill:url(#linearGradient373);fill-opacity:1;stroke-width:0"
               d="M 4.6875,-2.140625 C 4.6875,-3.40625 3.703125,-4.46875 2.5,-4.46875 c -1.25,0 -2.21875,1.09375 -2.21875,2.328125 0,1.296875 1.03125,2.25 2.203125,2.25 1.203125,0 2.203125,-0.984375 2.203125,-2.25 z m -2.1875,2 c -0.4375,0 -0.875,-0.203125 -1.140625,-0.671875 -0.25,-0.4375 -0.25,-1.046875 -0.25,-1.40625 0,-0.390625 0,-0.921875 0.234375,-1.359375 C 1.609375,-4.03125 2.078125,-4.25 2.484375,-4.25 c 0.4375,0 0.859375,0.21875 1.125,0.65625 0.265625,0.421875 0.265625,1 0.265625,1.375 0,0.359375 0,0.90625 -0.21875,1.34375 C 3.421875,-0.421875 2.984375,-0.140625 2.5,-0.140625 Z m 0,0"
               id="id-1092aab1-9957-435c-9b87-9ddddfbac163" />
          </symbol>
          <symbol
             overflow="visible"
             id="id-c50c431b-4269-409c-8eac-d4809c6b80cc"
             style="fill:url(#linearGradient373);fill-opacity:1;stroke-width:0">
            <path
               style="stroke:url(#linearGradient373);fill:url(#linearGradient373);fill-opacity:1;stroke-width:0"
               d=""
               id="id-d59a04ba-b9cf-48c3-bfbd-4da4542e41ea" />
          </symbol>
          <symbol
             overflow="visible"
             id="id-a7a21bb0-bdb3-4575-84e2-408746bc9768"
             style="fill:url(#linearGradient373);fill-opacity:1;stroke-width:0">
            <path
               style="stroke:url(#linearGradient373);fill:url(#linearGradient373);fill-opacity:1;stroke-width:0"
               d="m 4.75,-2.359375 c 0,-1.5625 -0.921875,-2.046875 -1.65625,-2.046875 -1.375,0 -2.6875,1.421875 -2.6875,2.828125 0,0.9375 0.59375,1.6875 1.625,1.6875 0.625,0 1.34375,-0.234375 2.09375,-0.84375 0.125,0.53125 0.453125,0.84375 0.90625,0.84375 0.53125,0 0.84375,-0.546875 0.84375,-0.703125 0,-0.078125 -0.0625,-0.109375 -0.125,-0.109375 -0.0625,0 -0.09375,0.03125 -0.125,0.109375 -0.1875,0.484375 -0.546875,0.484375 -0.5625,0.484375 -0.3125,0 -0.3125,-0.78125 -0.3125,-1.015625 0,-0.203125 0,-0.234375 0.109375,-0.34375 C 5.796875,-2.65625 6,-3.8125 6,-3.8125 6,-3.84375 5.984375,-3.921875 5.875,-3.921875 c -0.09375,0 -0.09375,0.03125 -0.140625,0.21875 -0.1875,0.625 -0.515625,1.375 -0.984375,1.96875 z m -0.65625,1.375 c -0.890625,0.765625 -1.65625,0.875 -2.046875,0.875 -0.59375,0 -0.90625,-0.453125 -0.90625,-1.09375 0,-0.484375 0.265625,-1.5625 0.578125,-2.0625 C 2.1875,-4 2.734375,-4.1875 3.078125,-4.1875 c 0.984375,0 0.984375,1.3125 0.984375,2.078125 0,0.375 0,0.953125 0.03125,1.125 z m 0,0"
               id="id-d8e0d279-c78d-4f2d-9c38-24bab8881ea0" />
          </symbol>
        </g>
      </defs>
      <g
         id="id-74bfab6b-5f31-423f-851d-2597ab8e4b0b"
         transform="translate(-149.071, -127.843)"
         style="fill:url(#linearGradient373);fill-opacity:1;stroke-width:0">
        <g
           style="fill:url(#linearGradient373);fill-opacity:1;stroke-width:0"
           id="id-a2864728-6e8f-4d25-94b2-f91e5d892e8a">
          <g
             transform="translate(148.712, 134.765)"
             style="fill:url(#linearGradient373);fill-opacity:1;stroke-width:0"
             id="g1704">
            <path
               style="stroke:url(#linearGradient373);fill:url(#linearGradient373);fill-opacity:1;stroke-width:0"
               d="m 6.640625,-6.75 h -6.09375 l -0.1875,2.25 h 0.25 C 0.75,-6.109375 0.890625,-6.4375 2.40625,-6.4375 c 0.171875,0 0.4375,0 0.53125,0.015625 0.21875,0.046875 0.21875,0.15625 0.21875,0.375 v 5.265625 c 0,0.328125 0,0.46875 -1.046875,0.46875 H 1.703125 V 0 C 2.109375,-0.03125 3.125,-0.03125 3.59375,-0.03125 c 0.453125,0 1.484375,0 1.890625,0.03125 v -0.3125 h -0.40625 c -1.046875,0 -1.046875,-0.140625 -1.046875,-0.46875 v -5.265625 c 0,-0.1875 0,-0.328125 0.1875,-0.375 0.109375,-0.015625 0.375,-0.015625 0.5625,-0.015625 1.515625,0 1.65625,0.328125 1.796875,1.9375 h 0.25 z m 0,0"
               id="id-8e54d54f-4ab1-4a3e-99fa-77d9d51e1fa2" />
          </g>
          <g
             transform="translate(155.907, 134.765)"
             style="fill:url(#linearGradient373);fill-opacity:1;stroke-width:0"
             id="g1707">
            <path
               style="stroke:url(#linearGradient373);fill:url(#linearGradient373);fill-opacity:1;stroke-width:0"
               d="m 1.09375,-0.75 c 0,0.4375 -0.109375,0.4375 -0.78125,0.4375 V 0 c 0.359375,-0.015625 0.859375,-0.03125 1.140625,-0.03125 0.25,0 0.765625,0.015625 1.109375,0.03125 v -0.3125 c -0.671875,0 -0.78125,0 -0.78125,-0.4375 V -2.59375 C 1.78125,-3.625 2.5,-4.1875 3.125,-4.1875 c 0.640625,0 0.75,0.53125 0.75,1.109375 V -0.75 c 0,0.4375 -0.109375,0.4375 -0.78125,0.4375 V 0 c 0.34375,-0.015625 0.859375,-0.03125 1.125,-0.03125 0.25,0 0.78125,0.015625 1.109375,0.03125 v -0.3125 c -0.515625,0 -0.765625,0 -0.765625,-0.296875 v -1.90625 c 0,-0.859375 0,-1.15625 -0.3125,-1.515625 -0.140625,-0.171875 -0.46875,-0.375 -1.046875,-0.375 -0.84375,0 -1.28125,0.59375 -1.453125,0.984375 v -3.5 L 0.3125,-6.8125 V -6.5 c 0.703125,0 0.78125,0.0625 0.78125,0.5625 z m 0,0"
               id="id-3a44cb81-68cd-4fc6-97e2-e0f447239d70" />
          </g>
          <g
             transform="translate(161.442, 134.765)"
             style="fill:url(#linearGradient373);fill-opacity:1;stroke-width:0"
             id="g1710">
            <path
               style="stroke:url(#linearGradient373);fill:url(#linearGradient373);fill-opacity:1;stroke-width:0"
               d="M 1.765625,-4.40625 0.375,-4.296875 v 0.3125 c 0.640625,0 0.734375,0.0625 0.734375,0.546875 V -0.75 c 0,0.4375 -0.109375,0.4375 -0.78125,0.4375 V 0 C 0.640625,-0.015625 1.1875,-0.03125 1.421875,-0.03125 1.78125,-0.03125 2.125,-0.015625 2.46875,0 v -0.3125 c -0.671875,0 -0.703125,-0.046875 -0.703125,-0.4375 z m 0.03125,-1.734375 c 0,-0.3125 -0.234375,-0.53125 -0.515625,-0.53125 -0.3125,0 -0.53125,0.265625 -0.53125,0.53125 0,0.265625 0.21875,0.53125 0.53125,0.53125 0.28125,0 0.515625,-0.21875 0.515625,-0.53125 z m 0,0"
               id="id-a9de1ee5-8ae7-4f1e-ae47-73bcef0a73e4" />
          </g>
          <g
             transform="translate(164.21, 134.765)"
             style="fill:url(#linearGradient373);fill-opacity:1;stroke-width:0"
             id="g1713">
            <path
               style="stroke:url(#linearGradient373);fill:url(#linearGradient373);fill-opacity:1;stroke-width:0"
               d="m 2.078125,-1.9375 c 0.21875,0.046875 1.03125,0.203125 1.03125,0.921875 0,0.5 -0.34375,0.90625 -1.125,0.90625 -0.84375,0 -1.203125,-0.5625 -1.390625,-1.421875 C 0.5625,-1.65625 0.5625,-1.6875 0.453125,-1.6875 c -0.125,0 -0.125,0.0625 -0.125,0.234375 V -0.125 c 0,0.171875 0,0.234375 0.109375,0.234375 0.046875,0 0.0625,-0.015625 0.25,-0.203125 0.015625,-0.015625 0.015625,-0.03125 0.203125,-0.21875 0.4375,0.40625 0.890625,0.421875 1.09375,0.421875 1.140625,0 1.609375,-0.671875 1.609375,-1.390625 0,-0.515625 -0.296875,-0.828125 -0.421875,-0.9375 C 2.84375,-2.546875 2.453125,-2.625 2.03125,-2.703125 1.46875,-2.8125 0.8125,-2.9375 0.8125,-3.515625 c 0,-0.359375 0.25,-0.765625 1.109375,-0.765625 1.09375,0 1.15625,0.90625 1.171875,1.203125 0,0.09375 0.09375,0.09375 0.109375,0.09375 0.140625,0 0.140625,-0.046875 0.140625,-0.234375 v -1.015625 c 0,-0.15625 0,-0.234375 -0.109375,-0.234375 -0.046875,0 -0.078125,0 -0.203125,0.125 -0.03125,0.03125 -0.125,0.125 -0.171875,0.15625 -0.375,-0.28125 -0.78125,-0.28125 -0.9375,-0.28125 -1.21875,0 -1.59375,0.671875 -1.59375,1.234375 0,0.34375 0.15625,0.625 0.421875,0.84375 0.328125,0.25 0.609375,0.3125 1.328125,0.453125 z m 0,0"
               id="id-4653b652-4c9e-423c-9981-197ace19f77a" />
          </g>
        </g>
        <g
           style="fill:url(#linearGradient373);fill-opacity:1;stroke-width:0"
           id="id-ae302021-5b82-4742-9d40-a5c1744c3179">
          <g
             transform="translate(171.457, 134.765)"
             style="fill:url(#linearGradient373);fill-opacity:1;stroke-width:0"
             id="g1717">
            <path
               style="stroke:url(#linearGradient373);fill:url(#linearGradient373);fill-opacity:1;stroke-width:0"
               d="M 1.765625,-4.40625 0.375,-4.296875 v 0.3125 c 0.640625,0 0.734375,0.0625 0.734375,0.546875 V -0.75 c 0,0.4375 -0.109375,0.4375 -0.78125,0.4375 V 0 C 0.640625,-0.015625 1.1875,-0.03125 1.421875,-0.03125 1.78125,-0.03125 2.125,-0.015625 2.46875,0 v -0.3125 c -0.671875,0 -0.703125,-0.046875 -0.703125,-0.4375 z m 0.03125,-1.734375 c 0,-0.3125 -0.234375,-0.53125 -0.515625,-0.53125 -0.3125,0 -0.53125,0.265625 -0.53125,0.53125 0,0.265625 0.21875,0.53125 0.53125,0.53125 0.28125,0 0.515625,-0.21875 0.515625,-0.53125 z m 0,0"
               id="id-d77b50de-a20f-4c19-a73b-b9a596f07054" />
          </g>
          <g
             transform="translate(174.224, 134.765)"
             style="fill:url(#linearGradient373);fill-opacity:1;stroke-width:0"
             id="g1720">
            <path
               style="stroke:url(#linearGradient373);fill:url(#linearGradient373);fill-opacity:1;stroke-width:0"
               d="m 2.078125,-1.9375 c 0.21875,0.046875 1.03125,0.203125 1.03125,0.921875 0,0.5 -0.34375,0.90625 -1.125,0.90625 -0.84375,0 -1.203125,-0.5625 -1.390625,-1.421875 C 0.5625,-1.65625 0.5625,-1.6875 0.453125,-1.6875 c -0.125,0 -0.125,0.0625 -0.125,0.234375 V -0.125 c 0,0.171875 0,0.234375 0.109375,0.234375 0.046875,0 0.0625,-0.015625 0.25,-0.203125 0.015625,-0.015625 0.015625,-0.03125 0.203125,-0.21875 0.4375,0.40625 0.890625,0.421875 1.09375,0.421875 1.140625,0 1.609375,-0.671875 1.609375,-1.390625 0,-0.515625 -0.296875,-0.828125 -0.421875,-0.9375 C 2.84375,-2.546875 2.453125,-2.625 2.03125,-2.703125 1.46875,-2.8125 0.8125,-2.9375 0.8125,-3.515625 c 0,-0.359375 0.25,-0.765625 1.109375,-0.765625 1.09375,0 1.15625,0.90625 1.171875,1.203125 0,0.09375 0.09375,0.09375 0.109375,0.09375 0.140625,0 0.140625,-0.046875 0.140625,-0.234375 v -1.015625 c 0,-0.15625 0,-0.234375 -0.109375,-0.234375 -0.046875,0 -0.078125,0 -0.203125,0.125 -0.03125,0.03125 -0.125,0.125 -0.171875,0.15625 -0.375,-0.28125 -0.78125,-0.28125 -0.9375,-0.28125 -1.21875,0 -1.59375,0.671875 -1.59375,1.234375 0,0.34375 0.15625,0.625 0.421875,0.84375 0.328125,0.25 0.609375,0.3125 1.328125,0.453125 z m 0,0"
               id="id-fbc4b8bf-def6-4722-a1cf-ce5435f98999" />
          </g>
        </g>
        <g
           style="fill:url(#linearGradient373);fill-opacity:1;stroke-width:0"
           id="id-2cb693ac-f15d-4ad5-a801-459ecaab9fc9">
          <g
             transform="translate(181.481, 134.765)"
             style="fill:url(#linearGradient373);fill-opacity:1;stroke-width:0"
             id="g1724">
            <path
               style="stroke:url(#linearGradient373);fill:url(#linearGradient373);fill-opacity:1;stroke-width:0"
               d="M 6.109375,-6.03125 C 6.109375,-6.390625 6.125,-6.5 6.890625,-6.5 h 0.25 v -0.3125 c -0.359375,0.03125 -1.09375,0.03125 -1.46875,0.03125 -0.375,0 -1.125,0 -1.46875,-0.03125 V -6.5 H 4.4375 c 0.765625,0 0.78125,0.109375 0.78125,0.46875 v 2.328125 H 2.25 V -6.03125 C 2.25,-6.390625 2.265625,-6.5 3.03125,-6.5 h 0.234375 v -0.3125 c -0.34375,0.03125 -1.078125,0.03125 -1.46875,0.03125 -0.375,0 -1.125,0 -1.46875,-0.03125 V -6.5 H 0.5625 c 0.765625,0 0.796875,0.109375 0.796875,0.46875 v 5.25 c 0,0.359375 -0.03125,0.46875 -0.796875,0.46875 H 0.328125 V 0 c 0.34375,-0.03125 1.09375,-0.03125 1.46875,-0.03125 0.375,0 1.125,0 1.46875,0.03125 V -0.3125 H 3.03125 C 2.265625,-0.3125 2.25,-0.421875 2.25,-0.78125 v -2.609375 h 2.96875 v 2.609375 c 0,0.359375 -0.015625,0.46875 -0.78125,0.46875 H 4.203125 V 0 c 0.34375,-0.03125 1.078125,-0.03125 1.453125,-0.03125 0.390625,0 1.125,0 1.484375,0.03125 v -0.3125 h -0.25 c -0.765625,0 -0.78125,-0.109375 -0.78125,-0.46875 z m 0,0"
               id="id-b1fa7c85-12cc-4f55-9030-b30f0dba74e8" />
          </g>
        </g>
        <g
           style="fill:url(#linearGradient373);fill-opacity:1;stroke-width:0"
           id="id-5ce58c6e-2b05-460a-b103-2d40126e9f34">
          <g
             transform="translate(188.95, 134.765)"
             style="fill:url(#linearGradient373);fill-opacity:1;stroke-width:0"
             id="g1728">
            <path
               style="stroke:url(#linearGradient373);fill:url(#linearGradient373);fill-opacity:1;stroke-width:0"
               d="m 4.75,-2.359375 c 0,-1.5625 -0.921875,-2.046875 -1.65625,-2.046875 -1.375,0 -2.6875,1.421875 -2.6875,2.828125 0,0.9375 0.59375,1.6875 1.625,1.6875 0.625,0 1.34375,-0.234375 2.09375,-0.84375 0.125,0.53125 0.453125,0.84375 0.90625,0.84375 0.53125,0 0.84375,-0.546875 0.84375,-0.703125 0,-0.078125 -0.0625,-0.109375 -0.125,-0.109375 -0.0625,0 -0.09375,0.03125 -0.125,0.109375 -0.1875,0.484375 -0.546875,0.484375 -0.5625,0.484375 -0.3125,0 -0.3125,-0.78125 -0.3125,-1.015625 0,-0.203125 0,-0.234375 0.109375,-0.34375 C 5.796875,-2.65625 6,-3.8125 6,-3.8125 6,-3.84375 5.984375,-3.921875 5.875,-3.921875 c -0.09375,0 -0.09375,0.03125 -0.140625,0.21875 -0.1875,0.625 -0.515625,1.375 -0.984375,1.96875 z m -0.65625,1.375 c -0.890625,0.765625 -1.65625,0.875 -2.046875,0.875 -0.59375,0 -0.90625,-0.453125 -0.90625,-1.09375 0,-0.484375 0.265625,-1.5625 0.578125,-2.0625 C 2.1875,-4 2.734375,-4.1875 3.078125,-4.1875 c 0.984375,0 0.984375,1.3125 0.984375,2.078125 0,0.375 0,0.953125 0.03125,1.125 z m 0,0"
               id="id-5fe5d8ab-833e-413a-9437-5cb55f70efc4" />
          </g>
        </g>
        <g
           style="fill:url(#linearGradient373);fill-opacity:1;stroke-width:0"
           id="id-846af139-1662-4d67-aa39-85427bf79abd">
          <g
             transform="translate(195.36, 134.765)"
             style="fill:url(#linearGradient373);fill-opacity:1;stroke-width:0"
             id="g1732">
            <path
               style="stroke:url(#linearGradient373);fill:url(#linearGradient373);fill-opacity:1;stroke-width:0"
               d="M 4.6875,-2.140625 C 4.6875,-3.40625 3.703125,-4.46875 2.5,-4.46875 c -1.25,0 -2.21875,1.09375 -2.21875,2.328125 0,1.296875 1.03125,2.25 2.203125,2.25 1.203125,0 2.203125,-0.984375 2.203125,-2.25 z m -2.1875,2 c -0.4375,0 -0.875,-0.203125 -1.140625,-0.671875 -0.25,-0.4375 -0.25,-1.046875 -0.25,-1.40625 0,-0.390625 0,-0.921875 0.234375,-1.359375 C 1.609375,-4.03125 2.078125,-4.25 2.484375,-4.25 c 0.4375,0 0.859375,0.21875 1.125,0.65625 0.265625,0.421875 0.265625,1 0.265625,1.375 0,0.359375 0,0.90625 -0.21875,1.34375 C 3.421875,-0.421875 2.984375,-0.140625 2.5,-0.140625 Z m 0,0"
               id="id-8864a610-5d66-4b19-8066-d4142cb17e5c" />
          </g>
        </g>
      </g>
    </g>
  </g>
</svg>
